<?xml version="1.0" encoding="utf-8"?>
<!-- Generator: Adobe Illustrator 23.0.2, SVG Export Plug-In . SVG Version: 6.00 Build 0)  -->
<svg version="1.1" id="Слой_1" xmlns="http://www.w3.org/2000/svg" xmlns:xlink="http://www.w3.org/1999/xlink" x="0px" y="0px"
	 viewBox="0 0 1098.5 233.7" style="enable-background:new 0 0 1098.5 233.7;" xml:space="preserve">
<style type="text/css">
	.st0{fill:#2AB540;}
</style>
<path class="st0" d="M275.5,149.6c-14.1,0-26-4.5-35.6-13.5s-14.5-20.8-14.5-35.3c0-14.6,4.8-26.3,14.5-35.3
	c9.6-8.9,21.5-13.4,35.6-13.4c17.1,0,30.1,7,38.9,21l-16.6,9c-2.3-3.6-5.3-6.5-9.2-8.8c-3.9-2.3-8.3-3.5-13-3.5
	c-8.6,0-15.6,2.9-21.2,8.7c-5.5,5.8-8.3,13.2-8.3,22.1s2.8,16.3,8.3,22.1c5.5,5.8,12.6,8.7,21.2,8.7c3.9,0,7.8-0.7,11.4-2.1
	c3.7-1.4,6.5-3.1,8.6-5.1v-11.3h-24.8V95.7h44.9v36.1C304.9,143.7,291.6,149.6,275.5,149.6z"/>
<path class="st0" d="M407.7,147.8h-23l-18.5-33.4h-14.7v33.4h-20V53.7h44c9.7,0,17.4,2.8,23.1,8.5c5.7,5.6,8.5,12.9,8.5,21.9
	c0,7.7-2,14-6,18.8c-4,4.8-8.9,7.9-14.6,9.2L407.7,147.8z M372.5,96.7c4.1,0,7.5-1.1,10.2-3.5c2.6-2.3,3.9-5.4,3.9-9.2
	c0-3.9-1.3-6.9-3.9-9.2c-2.6-2.3-6-3.5-10.2-3.5h-21v25.4C351.5,96.7,372.5,96.7,372.5,96.7z"/>
<path class="st0" d="M488.8,147.8h-66.6V53.7h66.6v17.6h-46.5v19.9h45.6v17.6h-45.6v21.3h46.5V147.8z"/>
<path class="st0" d="M571,147.8h-66.6V53.7H571v17.6h-46.5v19.9H570v17.6h-45.6v21.3H571V147.8z"/>
<path class="st0" d="M670.8,147.8h-19.3l-44.9-61.4v61.4h-20V53.7h20.6l43.6,59.1V53.7h20L670.8,147.8L670.8,147.8z"/>
<path class="st0" d="M718.2,121.3h-33.8V106h33.8V121.3z"/>
<path class="st0" d="M777.3,149.5c-14.3,0-26.2-4.5-35.8-13.6c-9.5-9.1-14.3-20.8-14.3-35c0-14.3,4.8-26,14.3-35
	c9.5-9.1,21.5-13.6,35.8-13.6c17.6,0,30.7,7.7,39.3,23l-17.2,8.5c-2.1-3.9-5.1-7.2-9.1-9.8c-4-2.6-8.3-3.9-13-3.9
	c-8.6,0-15.6,2.9-21.2,8.7c-5.5,5.8-8.3,13.2-8.3,22.1s2.8,16.3,8.3,22.1s12.6,8.7,21.2,8.7c4.7,0,9-1.3,13-3.8s7-5.8,9.1-9.9
	l17.2,8.3C807.7,141.8,794.6,149.5,777.3,149.5z"/>
<path class="st0" d="M913.3,147.8h-20.2v-39.5h-44.4v39.5h-20V53.7h20v37h44.4v-37h20.2V147.8z"/>
<path class="st0" d="M1019.5,147.8h-22.8l-5.8-15.9h-40.3l-5.9,15.9h-22.8l36.4-94.1h25.1L1019.5,147.8z M985.3,114.2l-14.7-40.5
	L956,114.2H985.3z"/>
<path class="st0" d="M1070.1,147.8h-20.2V71.3h-27.5V53.7h75v17.6H1070L1070.1,147.8L1070.1,147.8z"/>
<g>
	<path class="st0" d="M191.3,6.2c-3.4-3.7-8.2-5.9-13.2-6.2c-2.2-0.1-4.4,0-6.5,0C121.1,0,70.7,0,20.3,0h-0.2
		C15.2,0.1,10.5,2.1,7,5.4C3.3,9,1.1,13.7,0.9,18.8c-0.1,2.2,0,4.4,0,6.6v188.1c0.1,4.8,1.8,9.6,4.6,13.5c2.2,3,5.3,5.5,8.9,6.4
		c2.3,0.6,4.7,0.5,7-0.3c52.1-15.9,104.2-31.9,156.3-47.9c4.4-1.4,8.7-3.2,12.3-6.2c2.8-2.2,5-5.2,6-8.7c0.6-2,0.7-4,0.7-6.1
		c0-48.1,0-96.4,0-144.6C196.6,14.6,194.7,9.8,191.3,6.2z M99.1,171.8c-12.2,0-24.2-3-34.8-8.9L25.6,173L36,135.4
		c-6.4-11-9.7-23.5-9.7-36.3c0-40.1,32.7-72.8,72.8-72.8c19.5,0,37.8,7.6,51.5,21.4c13.7,13.7,21.3,32,21.3,51.5
		C171.9,139.1,139.2,171.8,99.1,171.8z"/>
	<path class="st0" d="M99.1,41.9c-31.5,0-57.2,25.6-57.2,57.1c0,10.8,3,21.4,8.7,30.4l1.3,2.1l-5.8,21.1l21.6-5.7l2,1.2
		c8.8,5.2,18.9,7.9,29.1,8c31.5,0,57.1-25.6,57.1-57.1c0-15.3-6-29.6-16.7-40.4C128.7,47.8,114.4,42,99.1,41.9z M128.3,121.4
		c-7.4,8.3-16.7,12.4-27.8,12.4c-9.8,0-18.1-3.1-24.8-9.4C69,118,65.6,109.8,65.6,99.8c0-10.1,3.4-18.3,10.1-24.6s14.9-9.3,24.8-9.3
		c11.9,0,20.9,4.9,27,14.6L116,86.8c-1.6-2.5-3.7-4.5-6.4-6.1c-2.8-1.6-5.8-2.4-9.1-2.4c-6,0-10.9,2-14.7,6C82,88.4,80,93.5,80,99.7
		s2,11.4,5.8,15.4c3.8,4.1,8.8,6,14.7,6c2.8,0,5.4-0.5,7.9-1.5c2.6-1,4.5-2.1,6-3.6v-7.8H97.1v-12h31.2V121.4z"/>
</g>
</svg>
